# xmcd
#
# Track frame offsets:
#       150
#       42890
#       59534
#       79324
#       113514
#       148527
#       165580
#       184424
#       208924
#       224886
#       239149
#       272922
#
# Disc length: 4094 seconds
#
# Revision: 0
# Processed by: cddbd v1.4PL0 Copyright (c) Steve Scherf et al.
# Submitted via: WhereIsIt 3.23
#
DISCID=c30ffc0c
DTITLE=Ten Years After - I'm Going Home
DYEAR=1900
DGENRE=
TTITLE0=I'm Going Home
TTITLE1=I'd Love To Change The World
TTITLE2=It's Getting Harder
TTITLE3=Love Like A Man
TTITLE4=Woodchoppers Ball
TTITLE5=Rock And Roll Music To The World
TTITLE6=Me And My Baby
TTITLE7=I Woke Up This Morning
TTITLE8=Stoned Woman
TTITLE9=Choo Choo Mama
TTITLE10=Slow Blues In C
TTITLE11=50,000 Miles Beneath My Brain
EXTD=
EXTT0=
EXTT1=
EXTT2=
EXTT3=
EXTT4=
EXTT5=
EXTT6=
EXTT7=
EXTT8=
EXTT9=
EXTT10=
EXTT11=
PLAYORDER=
